<?xml version="1.0" encoding="UTF-8"?>
<svg version="1.1" xmlns="http://www.w3.org/2000/svg" width="516" height="283">
<path d="M0 0 C170.28 0 340.56 0 516 0 C516 93.39 516 186.78 516 283 C345.72 283 175.44 283 0 283 C0 189.61 0 96.22 0 0 Z " fill="#020202" transform="translate(0,0)"/>
<path d="M0 0 C3.02630171 0.04750789 6.04909896 0.04104428 9.07568359 0.02783203 C11.03013136 0.03898029 12.98456456 0.05319674 14.93896484 0.07080078 C15.8277533 0.06897797 16.71654175 0.06715515 17.63226318 0.0652771 C23.3927421 0.19372049 27.83065225 1.3846402 33.07647705 3.77578735 C36.29712983 5.09393895 38.84354043 5.1332257 42.26708984 4.67236328 C44.29853625 3.73789793 46.30242571 2.74011553 48.26708984 1.67236328 C52.92368846 0.37556851 57.6125889 0.51072607 62.40771484 0.50439453 C63.28933289 0.50106613 64.17095093 0.49773773 65.07928467 0.49430847 C66.94184856 0.48925622 68.80442145 0.48689962 70.66699219 0.48706055 C73.4934817 0.48488148 76.31957593 0.46672813 79.14599609 0.44775391 C80.96240102 0.44481801 82.77880779 0.44283453 84.59521484 0.44189453 C85.42990295 0.43470901 86.26459106 0.4275235 87.12457275 0.42012024 C93.89236045 0.44601717 100.52906029 0.84701024 106.26708984 4.67236328 C110.72278444 5.27448417 113.36980283 3.70220027 117.26708984 1.67236328 C122.02631531 0.3473958 126.87192032 0.47522676 131.77490234 0.43408203 C132.69616913 0.42601028 133.61743591 0.41793854 134.56661987 0.40962219 C136.51493469 0.39581786 138.46327332 0.38507945 140.41162109 0.37719727 C142.38793105 0.36570333 144.36421061 0.34529274 146.34033203 0.31567383 C167.36533106 0.00089674 167.36533106 0.00089674 176.26708984 4.67236328 C177.25708984 5.16736328 177.25708984 5.16736328 178.26708984 5.67236328 C178.26708984 6.33236328 178.26708984 6.99236328 178.26708984 7.67236328 C179.33830078 8.03587891 179.33830078 8.03587891 180.43115234 8.40673828 C190.10849337 12.72555163 195.78419295 21.03981398 200.02880859 30.30908203 C201.59959566 34.57547846 202.18895889 38.14076811 202.26708984 42.67236328 C199.62708984 42.67236328 196.98708984 42.67236328 194.26708984 42.67236328 C192.97455055 39.71798775 192.06720601 36.87535901 191.39208984 33.73486328 C189.36879786 25.59605718 183.57811464 20.77722697 177.26708984 15.67236328 C176.27708984 15.17736328 176.27708984 15.17736328 175.26708984 14.67236328 C175.26708984 14.01236328 175.26708984 13.35236328 175.26708984 12.67236328 C174.17396484 12.54861328 173.08083984 12.42486328 171.95458984 12.29736328 C168.26708984 11.67236328 168.26708984 11.67236328 165.26708984 9.67236328 C163.15349178 9.34352089 163.15349178 9.34352089 160.80249023 9.35009766 C159.90047379 9.33088257 158.99845734 9.31166748 158.06910706 9.29187012 C157.09416794 9.28337036 156.11922882 9.27487061 155.11474609 9.26611328 C154.10423691 9.25471313 153.09372772 9.24331299 152.05259705 9.23156738 C149.90823554 9.21265933 147.7638158 9.19959619 145.61938477 9.19189453 C142.37262783 9.17261879 139.12847907 9.11064983 135.88232422 9.04736328 C121.46407276 8.89881624 112.24892162 10.02326942 101.26708984 20.04736328 C95.04714944 26.7725335 92.62828629 33.94309156 90.26708984 42.67236328 C87.95708984 42.67236328 85.64708984 42.67236328 83.26708984 42.67236328 C82.67665842 35.73479404 84.08523702 33.83153213 87.26708984 26.67236328 C78.02708984 26.67236328 68.78708984 26.67236328 59.26708984 26.67236328 C60.58708984 29.31236328 61.90708984 31.95236328 63.26708984 34.67236328 C64.63134484 38.76512828 64.45132038 42.57359281 64.45458984 46.85986328 C64.46683594 47.68550781 64.47908203 48.51115234 64.49169922 49.36181641 C64.50934709 56.82686537 63.06038112 62.68913509 60.26708984 69.67236328 C64.55708984 69.67236328 68.84708984 69.67236328 73.26708984 69.67236328 C73.26708984 72.31236328 73.26708984 74.95236328 73.26708984 77.67236328 C72.68741455 77.67123535 72.10773926 77.67010742 71.51049805 77.66894531 C68.8656995 77.68110531 66.22375147 77.73880745 63.57958984 77.79736328 C62.66757813 77.79478516 61.75556641 77.79220703 60.81591797 77.78955078 C55.84205215 77.85506499 55.84205215 77.85506499 51.50683594 79.99560547 C49.6719344 82.12499738 48.26708984 83.78201401 48.26708984 86.67236328 C51.18659415 87.64553138 53.32153936 87.86531789 56.37255859 87.98876953 C57.35546875 88.03066406 58.33837891 88.07255859 59.35107422 88.11572266 C60.37523437 88.15503906 61.39939453 88.19435547 62.45458984 88.23486328 C63.49035156 88.27804688 64.52611328 88.32123047 65.59326172 88.36572266 C68.15107174 88.47180694 70.7089783 88.57386474 73.26708984 88.67236328 C73.26708984 91.31236328 73.26708984 93.95236328 73.26708984 96.67236328 C72.27708984 96.67236328 71.28708984 96.67236328 70.26708984 96.67236328 C70.28041351 97.47114395 70.29373718 98.26992462 70.3074646 99.09291077 C70.42794929 106.64003319 70.51916827 114.18668595 70.57796288 121.73452091 C70.60920707 125.61453006 70.65154934 129.49374114 70.71972656 133.37329102 C70.785172 137.12107052 70.82084784 140.86808508 70.8363533 144.61639214 C70.8473951 146.04255649 70.86895824 147.46868142 70.90147018 148.8945179 C71.17642331 161.45848513 71.17642331 161.45848513 67.38696289 166.01611328 C62.32825246 170.84644005 56.93081431 171.28358834 50.15380859 171.19189453 C46.143471 170.4701423 44.64352824 168.84258501 42.35302734 165.59423828 C41.99466797 164.96001953 41.63630859 164.32580078 41.26708984 163.67236328 C40.91937531 163.11272888 40.57166077 162.55309448 40.21340942 161.97650146 C38.93263592 158.85802098 39.02774327 156.25332549 39.04003906 152.88427734 C39.03974701 152.21069687 39.03945496 151.53711639 39.03915405 150.84312439 C39.04054343 148.62461302 39.05608583 146.40644072 39.07177734 144.18798828 C39.07550887 142.64671004 39.07835519 141.10542942 39.08035278 139.56414795 C39.08797823 135.51334042 39.10761732 131.46267698 39.12976074 127.41192627 C39.15024265 123.27610218 39.15935951 119.14025475 39.16943359 115.00439453 C39.19086429 106.89365143 39.22498704 98.78302529 39.26708984 90.67236328 C37.28708984 91.66236328 37.28708984 91.66236328 35.26708984 92.67236328 C35.25829048 93.95236458 35.25829048 93.95236458 35.24931335 95.25822449 C35.19137008 103.3065821 35.119284 111.35466267 35.03137493 119.40275097 C34.98667874 123.54020929 34.9474211 127.67756931 34.9206543 131.81518555 C34.8946136 135.80946751 34.85420616 139.80337108 34.80390358 143.79741859 C34.78723997 145.31996256 34.77572252 146.84257198 34.76947594 148.36519432 C34.75982896 150.50078214 34.73176491 152.63540303 34.69946289 154.77075195 C34.68835983 155.98542648 34.67725677 157.20010101 34.66581726 158.45158386 C34.23096162 161.9641943 33.37444166 163.85677441 31.26708984 166.67236328 C29.07958984 167.98486328 29.07958984 167.98486328 27.26708984 168.67236328 C27.26708984 169.33236328 27.26708984 169.99236328 27.26708984 170.67236328 C23.55043433 172.53069104 19.31386835 172.25229532 15.26708984 171.67236328 C10.68116041 168.13737601 8.07601616 164.40843618 7.26708984 158.67236328 C7.18208893 156.55678865 7.14932141 154.43881051 7.15356445 152.3215332 C7.15363998 151.06060349 7.15371552 149.79967377 7.15379333 148.50053406 C7.15889916 147.13463298 7.16411514 145.7687323 7.16943359 144.40283203 C7.17130014 142.99750316 7.17272293 141.59217363 7.17372131 140.18684387 C7.17752784 136.49942203 7.18734211 132.81203998 7.19842529 129.12463379 C7.20867959 125.35734597 7.21322753 121.59005168 7.21826172 117.82275391 C7.22896614 110.43927229 7.24602004 103.05582337 7.26708984 95.67236328 C5.28708984 95.67236328 3.30708984 95.67236328 1.26708984 95.67236328 C1.27597229 96.48589264 1.28485474 97.299422 1.29400635 98.13760376 C1.37427147 105.81752864 1.43511442 113.49724913 1.47433853 121.17748451 C1.49518231 125.12566701 1.52344034 129.07350191 1.56884766 133.02148438 C1.61242136 136.83405329 1.63625108 140.6462886 1.64659882 144.45908737 C1.65396965 145.91112899 1.66836341 147.36315307 1.69001007 148.81505203 C1.7191996 150.85463661 1.72303971 152.89285617 1.72119141 154.93261719 C1.73007385 156.09177643 1.7389563 157.25093567 1.74810791 158.44522095 C1.01324736 163.37538834 -1.60251877 166.40898467 -4.85791016 170.04736328 C-9.09794614 172.44390536 -12.97620274 172.58922451 -17.73291016 171.67236328 C-20.67041016 169.42236328 -20.67041016 169.42236328 -22.73291016 166.67236328 C-23.52868217 165.81013153 -23.52868217 165.81013153 -24.3405304 164.93048096 C-26.27375436 161.79523918 -26.09328077 159.46104995 -26.07348633 155.79248047 C-26.07414345 154.7674794 -26.07414345 154.7674794 -26.07481384 153.72177124 C-26.07272937 151.47063288 -26.04941564 149.22024599 -26.02587891 146.96923828 C-26.02028171 145.40554206 -26.01601219 143.84184057 -26.01301575 142.27813721 C-26.00157663 138.16806442 -25.97211772 134.05831108 -25.93890381 129.94836426 C-25.90818266 125.75224122 -25.89450606 121.55606643 -25.87939453 117.35986328 C-25.84724692 109.13055023 -25.7960621 100.90149653 -25.73291016 92.67236328 C-26.51537109 92.53282227 -27.29783203 92.39328125 -28.10400391 92.24951172 C-37.2261816 90.24683452 -44.86990542 80.13140813 -49.73291016 72.67236328 C-56.71948913 61.65935042 -57.64437689 50.15541934 -55.32861328 37.45507812 C-53.3523947 28.98868789 -49.80009457 21.91799429 -43.73291016 15.67236328 C-43.01361328 14.90279297 -42.29431641 14.13322266 -41.55322266 13.34033203 C-29.23181747 1.16032002 -16.55080131 -0.27796063 0 0 Z " fill="#EFEFEF" transform="translate(68.73291015625,95.32763671875)"/>
<path d="M0 0 C5.74702885 3.1061622 11.37900009 10.46502144 13.34521484 16.75708008 C14.2833916 21.4651447 14.09924624 26.30563897 14.16015625 31.08984375 C14.21623047 32.72566406 14.21623047 32.72566406 14.2734375 34.39453125 C14.37575885 43.89904817 11.87168967 50.73068238 5.53515625 57.83984375 C-1.73039647 64.40678563 -8.90447651 65.7757755 -18.62109375 65.46484375 C-25.33107593 64.53128101 -29.03038509 61.5961235 -33.27734375 56.48046875 C-39.29398217 48.28037284 -39.42043299 42.34336705 -39.46484375 32.33984375 C-39.48546875 31.20160156 -39.50609375 30.06335937 -39.52734375 28.890625 C-39.56451978 20.79554509 -39.14293932 13.15408069 -34.3828125 6.34375 C-33.72925781 5.74433594 -33.07570313 5.14492188 -32.40234375 4.52734375 C-31.43361328 3.60115234 -31.43361328 3.60115234 -30.4453125 2.65625 C-21.80826857 -3.89338226 -9.94171887 -4.0324355 0 0 Z " fill="#040404" transform="translate(155.21484375,18.03515625)"/>
<path d="M0 0 C1.2601442 -0.0049926 1.2601442 -0.0049926 2.54574585 -0.01008606 C4.30881203 -0.0151159 6.07188759 -0.01749562 7.83496094 -0.01733398 C10.52294514 -0.01953085 13.21052511 -0.03775657 15.8984375 -0.05664062 C17.61979028 -0.05957337 19.34114498 -0.06155896 21.0625 -0.0625 C21.85951324 -0.06968552 22.65652649 -0.07687103 23.47769165 -0.08427429 C28.01197784 -0.06578565 31.62663506 0.44791425 35.8984375 2.16796875 C35.47691406 2.65007812 35.05539063 3.1321875 34.62109375 3.62890625 C34.07324219 4.26054688 33.52539062 4.8921875 32.9609375 5.54296875 C32.14302734 6.48269531 32.14302734 6.48269531 31.30859375 7.44140625 C29.82885126 9.12429209 29.82885126 9.12429209 28.8984375 11.16796875 C27.89055176 11.18778809 26.88266602 11.20760742 25.84423828 11.22802734 C22.06064264 11.30481082 18.27739568 11.39340791 14.49414062 11.48535156 C12.86497951 11.52334386 11.23574298 11.55824525 9.60644531 11.58984375 C-7.94914779 11.4207891 -7.94914779 11.4207891 -23.1171875 19.078125 C-29.24195463 25.52842109 -30.86897407 32.37662059 -30.76416016 41.12036133 C-30.29127023 49.55156972 -26.86563908 56.88676347 -20.7890625 62.79296875 C-14.43056729 67.38119913 -6.51960278 67.47271337 1.0625 67.43359375 C2.31696426 67.43646393 2.31696426 67.43646393 3.59677124 67.43939209 C5.34967351 67.44074266 7.10258616 67.43712581 8.85546875 67.42871094 C11.52366722 67.41796783 14.19119671 67.42865861 16.859375 67.44140625 C18.57291814 67.44008498 20.28646086 67.43752327 22 67.43359375 C22.7887149 67.43764221 23.57742981 67.44169067 24.39004517 67.44586182 C29.25747505 67.40501443 33.27691324 66.71179855 37.8984375 65.16796875 C37.8984375 64.50796875 37.8984375 63.84796875 37.8984375 63.16796875 C38.92576003 62.29163599 39.99711052 61.46659664 41.0859375 60.66796875 C46.75075788 55.86493646 49.66968917 50.3702445 50.42578125 42.96484375 C50.72206262 39.03325073 50.84464088 35.1097935 50.8984375 31.16796875 C50.2384375 31.16796875 49.5784375 31.16796875 48.8984375 31.16796875 C48.5234375 28.98046875 48.5234375 28.98046875 48.8984375 26.16796875 C51.6484375 23.35546875 51.6484375 23.35546875 54.8984375 21.16796875 C56.2184375 21.16796875 57.5384375 21.16796875 58.8984375 21.16796875 C63.87274829 35.3358718 64.30114594 46.48945526 57.8984375 60.16796875 C57.2384375 60.16796875 56.5784375 60.16796875 55.8984375 60.16796875 C55.62 61.18890625 55.62 61.18890625 55.3359375 62.23046875 C51.51796194 70.03241881 44.66437027 73.91452202 36.8984375 77.16796875 C35.71612549 77.67755127 34.53381348 78.18713379 33.31567383 78.7121582 C28.67364931 80.43724312 24.41364643 80.6190647 19.5 80.6015625 C18.62499847 80.60680435 17.74999695 80.6120462 16.84848022 80.6174469 C15.00804702 80.62383423 13.16757282 80.62257303 11.32714844 80.61401367 C8.53765839 80.60551209 5.7502255 80.63429682 2.9609375 80.66601562 C-10.83061802 80.72145487 -20.75569416 78.96205745 -31.1015625 69.16796875 C-37.1015625 62.32673164 -37.1015625 62.32673164 -37.1015625 59.16796875 C-37.7615625 59.16796875 -38.4215625 59.16796875 -39.1015625 59.16796875 C-39.4315625 56.85796875 -39.7615625 54.54796875 -40.1015625 52.16796875 C-40.7615625 52.16796875 -41.4215625 52.16796875 -42.1015625 52.16796875 C-45.25529067 42.70678424 -43.98811574 30.59469766 -39.6484375 21.78125 C-34.19698013 12.57159096 -27.22447976 5.17495683 -17.1015625 1.16796875 C-11.37278834 0.27552916 -5.79077423 0.0081266 0 0 Z " fill="#0D0D0D" transform="translate(63.1015625,103.83203125)"/>
<path d="M0 0 C1.216875 -0.00515625 2.43375 -0.0103125 3.6875 -0.015625 C6.75288791 0.23018441 8.43662952 0.6350766 11 2.25 C11 2.91 11 3.57 11 4.25 C11.7425 4.476875 12.485 4.70375 13.25 4.9375 C17.28788152 6.86467072 19.22935286 9.58899187 21.09228516 13.60424805 C22.61084116 18.03044261 22.36884274 22.42300207 22.375 27.0625 C22.39949219 28.02220703 22.42398438 28.98191406 22.44921875 29.97070312 C22.48129482 37.8026101 20.69698957 42.95367941 15.75 49 C9.55226225 54.07087634 4.65254518 55.70227996 -3.38671875 55.5859375 C-10.08202838 54.72525495 -13.5243363 51.27581119 -17.6875 46.1875 C-21.54040853 40.49987312 -21.33361081 35.73012651 -21.3125 29 C-21.32861328 27.98808594 -21.34472656 26.97617187 -21.36132812 25.93359375 C-21.36597916 18.76169495 -20.75498233 12.91904839 -16.31640625 7.0078125 C-15.73761719 6.46898437 -15.15882813 5.93015625 -14.5625 5.375 C-13.98628906 4.82070313 -13.41007813 4.26640625 -12.81640625 3.6953125 C-8.57634684 0.32150178 -5.42876592 -0.02300325 0 0 Z " fill="#060606" transform="translate(211,27.75)"/>
<path d="M0 0 C5.75879295 2.97228023 10.5030296 7.2794967 13.42578125 13.125 C13.75164636 17.32659747 13.7504672 21.5373421 13.80078125 25.75 C13.85685547 27.49603516 13.85685547 27.49603516 13.9140625 29.27734375 C14.00067769 37.77525583 12.53231381 42.57100238 6.88427734 48.83447266 C5.42578125 50.125 5.42578125 50.125 3.42578125 50.125 C3.42578125 50.785 3.42578125 51.445 3.42578125 52.125 C-3.94281957 55.14801572 -11.15649055 54.97797239 -18.57421875 52.125 C-23.68099098 49.08525463 -26.43637155 44.56175813 -28.57421875 39.125 C-29.21920483 34.8921481 -29.18586348 30.77294823 -29.07421875 26.5 C-29.07679687 25.406875 -29.079375 24.31375 -29.08203125 23.1875 C-28.99782513 16.23207478 -28.63728458 10.62869247 -23.890625 5.19921875 C-23.31183594 4.74160156 -22.73304687 4.28398438 -22.13671875 3.8125 C-21.56050781 3.34199219 -20.98429687 2.87148438 -20.390625 2.38671875 C-14.24491574 -1.88223629 -7.12063322 -2.42036698 0 0 Z " fill="#040404" transform="translate(80.57421875,28.875)"/>
<path d="M0 0 C1.05692047 0.00424484 1.05692047 0.00424484 2.13519287 0.00857544 C4.3767626 0.01973449 6.61792686 0.04483057 8.859375 0.0703125 C10.38280671 0.08034786 11.90624471 0.08947274 13.4296875 0.09765625 C17.15638086 0.11965959 20.88283833 0.15415978 24.609375 0.1953125 C23.85723106 7.59139456 23.85723106 7.59139456 22.5625 10.74609375 C19.38608567 18.90843714 21.55354253 29.94197046 23.609375 38.1953125 C23.94671555 39.86117271 24.28051059 41.52775828 24.609375 43.1953125 C20.01959462 43.2946088 15.43044712 43.36697998 10.83984375 43.41503906 C9.28016256 43.43508472 7.72055587 43.46232907 6.16113281 43.49707031 C3.91192186 43.54590376 1.6637091 43.56835065 -0.5859375 43.5859375 C-1.62223801 43.61690521 -1.62223801 43.61690521 -2.67947388 43.64849854 C-7.72122708 43.65080566 -10.49070759 42.3143764 -14.390625 39.1953125 C-16.21875 37.1953125 -16.21875 37.1953125 -17.640625 35.1953125 C-18.12015625 34.5353125 -18.5996875 33.8753125 -19.09375 33.1953125 C-22.78917191 27.4963486 -22.97427877 22.92168302 -22.390625 16.1953125 C-20.50349276 9.11856659 -15.70840461 4.99639369 -9.7253418 1.11499023 C-6.42656395 -0.18444469 -3.53805654 -0.02807981 0 0 Z " fill="#070707" transform="translate(61.390625,121.8046875)"/>
<path d="M0 0 C0.79019531 -0.020625 1.58039063 -0.04125 2.39453125 -0.0625 C7.41448096 -0.09591065 10.72573739 0.5623476 15.125 3.25 C15.125 3.91 15.125 4.57 15.125 5.25 C15.82625 5.476875 16.5275 5.70375 17.25 5.9375 C24.8112085 9.38935606 29.22717639 15.33850689 32.17138672 22.95800781 C33.70818211 28.2632175 33.49693047 33.53414666 33.49560547 39.02563477 C33.4999671 41.04725182 33.53630991 43.0666604 33.57421875 45.08789062 C33.60845343 56.57362457 30.93738342 64.75319837 23.125 73.25 C13.88432148 82.0100392 7.09315174 83.78657532 -5.47265625 83.55859375 C-13.94010352 82.79059337 -20.1812532 78.37618327 -25.875 72.25 C-30.87861418 65.7520938 -35.26138885 59.26101609 -35.23828125 50.85546875 C-35.23763672 49.65212891 -35.23699219 48.44878906 -35.23632812 47.20898438 C-35.22021484 45.96439453 -35.20410156 44.71980469 -35.1875 43.4375 C-35.19072266 42.20451172 -35.19394531 40.97152344 -35.19726562 39.70117188 C-35.15736682 32.90749434 -34.6552491 26.81067897 -32.875 20.25 C-32.215 20.25 -31.555 20.25 -30.875 20.25 C-30.77058594 19.50621094 -30.66617188 18.76242188 -30.55859375 17.99609375 C-28.92691733 11.44141649 -23.21434547 7.21363567 -17.6875 3.8125 C-11.73098626 0.36991647 -6.74849039 0.04360898 0 0 Z M-17.875 13.25 C-18.52210937 13.85457031 -19.16921875 14.45914062 -19.8359375 15.08203125 C-27.51083325 23.0231989 -27.21726023 31.77142505 -27.1875 42.3125 C-27.20361328 43.45783203 -27.21972656 44.60316406 -27.23632812 45.78320312 C-27.242221 55.9719817 -24.79596831 62.6623329 -17.875 70.25 C-13.26702927 74.79214258 -8.89383798 75.63032141 -2.5 75.875 C6.56800278 75.53247107 12.78810795 73.08186555 19 66.4375 C25.57801916 58.68601511 26.7459517 51.7510767 26.5625 41.75 C26.56958984 40.66074219 26.57667969 39.57148437 26.58398438 38.44921875 C26.50445607 28.33077181 24.35002648 21.47502648 17.125 14.25 C10.45827374 7.92515714 2.5258776 7.73146313 -6.27734375 7.87890625 C-11.32186092 8.3992419 -14.22305454 9.80649891 -17.875 13.25 Z " fill="#EBEBEB" transform="translate(142.875,7.75)"/>
<path d="M0 0 C0 0.66 0 1.32 0 2 C0.804375 2.185625 1.60875 2.37125 2.4375 2.5625 C9.72775308 5.50418107 15.20122484 9.92876121 18.34375 17.203125 C20.30840537 22.58253851 20.22144665 27.37681319 20.25 33.0625 C20.270625 34.06216797 20.29125 35.06183594 20.3125 36.09179688 C20.34785225 42.89268645 19.3390152 48.61357125 17 55 C16.34 55 15.68 55 15 55 C14.79375 55.721875 14.5875 56.44375 14.375 57.1875 C12.52471012 60.97218384 10.39759562 62.52258653 7 65 C6.34 65 5.68 65 5 65 C5 65.66 5 66.32 5 67 C-2.63562906 70.66510195 -11.26561151 71.66395672 -19.50390625 69.2734375 C-23.77152741 67.28134109 -26.88653491 64.5458908 -30 61 C-30.680625 60.278125 -31.36125 59.55625 -32.0625 58.8125 C-37.25494063 51.27508618 -38.61362498 43.94873296 -38.375 34.9375 C-38.37371094 34.00873047 -38.37242188 33.07996094 -38.37109375 32.12304688 C-38.26206778 23.49182457 -37.8937196 16.06033009 -31.625 9.625 C-30.85414062 8.81289063 -30.08328125 8.00078125 -29.2890625 7.1640625 C-20.6536324 -0.99980827 -11.20527615 -0.26262366 0 0 Z M-27.5 15.625 C-31.01349847 21.18803925 -30.330512 27.74999086 -30.4375 34.125 C-30.48326172 35.21554688 -30.52902344 36.30609375 -30.57617188 37.4296875 C-30.68677989 45.47040921 -28.93950907 50.63802499 -24 57 C-19.34554908 61.7708122 -14.88462412 62.00538824 -8.5 62.1875 C-4.67524913 62.1551417 -1.56595212 61.46295472 2 60 C2 59.34 2 58.68 2 58 C2.598125 57.731875 3.19625 57.46375 3.8125 57.1875 C8.26838822 54.76858925 10.17131656 51.71084757 12 47 C12.46976016 42.6624855 12.46408118 38.35931329 12.4375 34 C12.45748047 32.83726563 12.47746094 31.67453125 12.49804688 30.4765625 C12.49435841 24.02911813 12.42794665 19.84582909 8 15 C1.38652482 8.81783842 -3.90506576 6.29073145 -12.95703125 6.515625 C-19.18277204 7.50662867 -23.26711994 11.18047593 -27.5 15.625 Z " fill="#EBEBEB" transform="translate(82,21)"/>
<path d="M0 0 C6.11613015 5.20890418 10.80452329 10.7040061 11.64599609 18.96240234 C11.78336205 22.45782983 11.8020375 25.93562522 11.78125 29.43359375 C11.8112207 31.21733398 11.8112207 31.21733398 11.84179688 33.03710938 C11.83595437 43.55946063 9.18534152 49.57346758 2.13671875 57.23828125 C-3.63585371 62.89766602 -9.45506335 65.06606101 -17.40625 65.37109375 C-24.71999555 65.19911211 -30.57093176 63.82513962 -36.0546875 58.796875 C-41.65625 52.69412007 -41.65625 52.69412007 -41.65625 49.99609375 C-42.31625 49.99609375 -42.97625 49.99609375 -43.65625 49.99609375 C-46.83169811 43.0739529 -47.11172372 37.05168231 -47.03125 29.49609375 C-47.04285156 28.40683594 -47.05445313 27.31757812 -47.06640625 26.1953125 C-47.03289666 16.95783446 -45.71109234 10.54737716 -39.15625 3.62109375 C-38.3828125 2.78835937 -37.609375 1.955625 -36.8125 1.09765625 C-27.26467093 -8.20801774 -10.22303 -7.47183222 0 0 Z M-30.65625 5.99609375 C-31.45289063 6.66705078 -31.45289063 6.66705078 -32.265625 7.3515625 C-36.86203689 11.43361402 -38.34069475 15.51284922 -38.89111328 21.58862305 C-39.03262717 24.53987228 -39.07665007 27.47910624 -39.09375 30.43359375 C-39.12662109 31.43197266 -39.15949219 32.43035156 -39.19335938 33.45898438 C-39.2553678 42.03305864 -36.66390362 46.53729209 -31.15625 52.87109375 C-26.35241223 56.95435585 -21.70672313 57.51214296 -15.5703125 57.36328125 C-9.58523248 56.60912908 -4.69913661 54.36700484 -0.734375 49.765625 C4.04239921 42.7938093 4.55092041 37.46576567 4.59375 29.18359375 C4.614375 28.19810547 4.635 27.21261719 4.65625 26.19726562 C4.69475701 19.0301478 3.72466105 14.67461868 -1.15625 9.18359375 C-3.52765099 6.82411193 -3.52765099 6.82411193 -6.65625 5.99609375 C-6.98625 5.00609375 -7.31625 4.01609375 -7.65625 2.99609375 C-15.17321018 0.49044036 -24.72190847 0.3584693 -30.65625 5.99609375 Z " fill="#EDEDED" transform="translate(228.65625,26.00390625)"/>
<path d="M0 0 C1.53929169 -0.00430527 1.53929169 -0.00430527 3.10968018 -0.00869751 C5.26794999 -0.01073094 7.42623853 -0.00525178 9.58447266 0.00732422 C12.89396991 0.0234538 16.20225812 0.00741675 19.51171875 -0.01171875 C21.61198186 -0.00973748 23.71224423 -0.00589622 25.8125 0 C27.29843658 -0.00910904 27.29843658 -0.00910904 28.81439209 -0.0184021 C29.732547 -0.00894562 30.6507019 0.00051086 31.59667969 0.01025391 C32.40385437 0.01264069 33.21102905 0.01502747 34.04266357 0.01748657 C36.61418885 0.48442792 37.50515052 1.41363001 39.140625 3.3984375 C37.32362837 6.85849435 35.37285576 9.17635261 32.140625 11.3984375 C26.18551685 12.52714356 20.30719464 12.38613993 14.265625 12.2734375 C11.05983665 12.25554592 7.85425743 12.25726707 4.6484375 12.265625 C3.88643036 12.26671768 3.12442322 12.26781036 2.33932495 12.26893616 C-5.81777244 12.32957348 -12.11415003 12.8184879 -18.234375 18.7109375 C-19.04648438 19.47019531 -19.85859375 20.22945312 -20.6953125 21.01171875 C-26.00899023 26.87211061 -27.00113311 31.47707177 -26.984375 39.2109375 C-26.984375 40.45359375 -26.984375 41.69625 -26.984375 42.9765625 C-26.88603495 45.66862136 -26.6250416 47.87539017 -25.984375 50.4609375 C-25.859375 53.3984375 -25.859375 53.3984375 -26.98828125 54.95703125 C-28.546875 56.3984375 -28.546875 56.3984375 -31.859375 58.3984375 C-33.95874023 58.24316406 -33.95874023 58.24316406 -35.859375 57.3984375 C-38.61627957 51.77210164 -39.3835882 46.85952231 -39.296875 40.6484375 C-39.28712646 39.86275391 -39.27737793 39.07707031 -39.26733398 38.26757812 C-38.9349522 27.26179761 -35.99826156 19.52716918 -28.2265625 11.58984375 C-19.31625852 3.341196 -12.16635169 -0.07519639 0 0 Z " fill="#0B0B0B" transform="translate(128.859375,103.6015625)"/>
<path d="M0 0 C0.7734375 -0.00257813 1.546875 -0.00515625 2.34375 -0.0078125 C4.5 0.125 4.5 0.125 7.5 1.125 C7.5 1.785 7.5 2.445 7.5 3.125 C8.2425 3.33125 8.985 3.5375 9.75 3.75 C13.35312998 5.55156499 14.55168033 7.64585773 16.5 11.125 C18.48683773 17.24236881 18.39353072 24.53846369 16.3125 30.5625 C13.09796585 35.10718621 10.0204982 38.71277953 4.5 40.125 C-1.36809435 40.59823342 -5.23631459 40.06051686 -10.5 37.125 C-15.48265712 32.00767647 -16.78956383 27.22890305 -16.8125 20.1875 C-16.82925781 19.00285156 -16.84601563 17.81820312 -16.86328125 16.59765625 C-16.31461493 11.35287823 -14.27742081 7.46203938 -10.5 3.8125 C-10.005 3.32136719 -9.51 2.83023438 -9 2.32421875 C-6.18861727 0.07657683 -3.44857602 -0.01149525 0 0 Z " fill="#E6E6E6" transform="translate(173.5,201.875)"/>
<path d="M0 0 C2.47960136 0.14024219 4.95852402 0.2869185 7.4375 0.4375 C8.14455078 0.47681641 8.85160156 0.51613281 9.58007812 0.55664062 C14.88671875 0.88671875 14.88671875 0.88671875 16 2 C16.12018953 3.9058251 16.17021989 5.81610911 16.19287109 7.72558594 C16.21696548 9.56319489 16.21696548 9.56319489 16.24154663 11.43792725 C16.25303459 12.78673613 16.26364305 14.13555275 16.2734375 15.484375 C16.27876118 16.16123604 16.28408485 16.83809708 16.28956985 17.53546906 C16.31632341 21.12031422 16.33568827 24.70512434 16.35009766 28.29003906 C16.36672193 31.99035912 16.41147256 35.68978435 16.4624691 39.38976669 C16.49616459 42.23627722 16.50767763 45.08257641 16.51332474 47.92926788 C16.52003458 49.29283714 16.5352502 50.65639261 16.55921555 52.01976776 C16.75846856 64.04454497 16.75846856 64.04454497 13.60058594 67.33886719 C9.58456737 69.90411224 7.69038098 69.60521045 3 69 C1.27909851 67.86869812 1.27909851 67.86869812 0 66 C-0.36076355 63.13362122 -0.36076355 63.13362122 -0.34057617 59.60083008 C-0.34123329 58.63456947 -0.34123329 58.63456947 -0.34190369 57.64878845 C-0.33981559 55.52205979 -0.31648513 53.39612198 -0.29296875 51.26953125 C-0.28737283 49.79408702 -0.28310271 48.31863722 -0.28010559 46.84318542 C-0.26865637 42.96160466 -0.23918887 39.08036117 -0.20599365 35.19891357 C-0.17529424 31.23747317 -0.16160055 27.27597822 -0.14648438 23.31445312 C-0.11431894 15.54281506 -0.06312205 7.77145481 0 0 Z " fill="#0B0B0B" transform="translate(116,190)"/>
<path d="M0 0 C0.02315955 8.29274802 0.04093355 16.58548254 0.05181217 24.87825489 C0.05703308 28.72882542 0.06411638 32.57937384 0.07543945 36.42993164 C0.08629644 40.14519659 0.09228282 43.86044025 0.09487724 47.57571983 C0.09672641 48.99390689 0.10033731 50.41209276 0.10573006 51.83027077 C0.11297764 53.81497692 0.11340838 55.79970444 0.11352539 57.78442383 C0.115746 58.91471512 0.11796661 60.04500641 0.12025452 61.20954895 C0 64 0 64 -1 67 C-4.47042703 69.31361802 -5.91834173 69.51020728 -10 69 C-12.32754812 66.7260168 -12.95827673 65.33663088 -13.36076355 62.08929443 C-13.35410172 60.96122375 -13.34743988 59.83315308 -13.34057617 58.67089844 C-13.34034958 57.38987244 -13.34012299 56.10884644 -13.33988953 54.78900146 C-13.32457074 53.39578907 -13.30892278 52.00258026 -13.29296875 50.609375 C-13.28737097 49.18020066 -13.28310173 47.75102054 -13.28010559 46.32183838 C-13.26867101 42.5668539 -13.2392162 38.81221954 -13.20599365 35.05737305 C-13.1752626 31.22319271 -13.1615938 27.38895559 -13.14648438 23.5546875 C-13.1143448 16.03629901 -13.0631657 8.51819863 -13 1 C-8.60687366 0.40432185 -4.43867138 -0.06218804 0 0 Z " fill="#0F0F0F" transform="translate(96,190)"/>
<path d="M0 0 C1.97909398 -0.02686553 3.95828971 -0.04633375 5.9375 -0.0625 C7.03964844 -0.07410156 8.14179687 -0.08570313 9.27734375 -0.09765625 C12 0 12 0 13 1 C13.11500433 2.94190983 13.15967075 4.8880169 13.17700195 6.83325195 C13.18983719 8.08157303 13.20267242 9.3298941 13.21589661 10.61604309 C13.224064 11.99011846 13.23150773 13.3641983 13.23828125 14.73828125 C13.24235678 15.427423 13.2464323 16.11656475 13.25063133 16.82658958 C13.27151091 20.47512897 13.28580352 24.12363054 13.29516602 27.7722168 C13.30622554 31.54199341 13.34061371 35.31117891 13.38033772 39.08074665 C13.4064832 41.97782998 13.41485602 44.87477218 13.41844749 47.77196312 C13.42332009 49.16144992 13.43495342 50.55093014 13.45348549 51.9403019 C13.47782454 53.88624497 13.47449727 55.83247444 13.4699707 57.77856445 C13.47583694 58.88585403 13.48170319 59.99314362 13.48774719 61.13398743 C12.88475584 64.67717707 11.83146092 65.8490521 9 68 C5.9375 68.5 5.9375 68.5 3 68 C0.68124103 65.71838255 0.04182698 64.33746765 -0.36076355 61.08929443 C-0.35410172 59.96122375 -0.34743988 58.83315308 -0.34057617 57.67089844 C-0.34034958 56.38987244 -0.34012299 55.10884644 -0.33988953 53.78900146 C-0.32457074 52.39578907 -0.30892278 51.00258026 -0.29296875 49.609375 C-0.28737097 48.18020066 -0.28310173 46.75102054 -0.28010559 45.32183838 C-0.26867101 41.5668539 -0.2392162 37.81221954 -0.20599365 34.05737305 C-0.1752626 30.22319271 -0.1615938 26.38895559 -0.14648438 22.5546875 C-0.1143448 15.03629901 -0.0631657 7.51819863 0 0 Z " fill="#131313" transform="translate(50,191)"/>
<path d="M0 0 C0.82360016 0.00045822 1.64720032 0.00091644 2.49575806 0.00138855 C4.2183783 0.0043845 5.94099649 0.01218984 7.66357422 0.0246582 C10.30315689 0.04306705 12.94239066 0.04516642 15.58203125 0.04492188 C17.26302387 0.04983261 18.94401412 0.05565898 20.625 0.0625 C21.41248627 0.06361282 22.19997253 0.06472565 23.01132202 0.06587219 C26.23533812 0.09399029 28.83393873 0.20376083 31.9140625 1.23046875 C31.9140625 1.89046875 31.9140625 2.55046875 31.9140625 3.23046875 C32.9040625 3.50890625 32.9040625 3.50890625 33.9140625 3.79296875 C39.6599228 6.54619348 45.40021963 11.26009194 47.9140625 17.23046875 C48.1015625 20.04296875 48.1015625 20.04296875 47.9140625 22.23046875 C44.7265625 22.73046875 44.7265625 22.73046875 40.9140625 22.23046875 C39.32966903 20.33714062 38.26957964 18.38126849 37.11328125 16.203125 C35.5387685 13.61312846 33.56845303 12.59558388 30.9140625 11.23046875 C30.9140625 10.57046875 30.9140625 9.91046875 30.9140625 9.23046875 C26.50505748 8.40119806 22.24803243 8.04815161 17.765625 7.9140625 C17.10823334 7.8932814 16.45084167 7.87250031 15.77352905 7.85108948 C13.69546888 7.78626122 11.61729394 7.72702311 9.5390625 7.66796875 C8.12108239 7.62471987 6.70311343 7.58110366 5.28515625 7.53710938 C1.8282437 7.43064957 -1.62879456 7.32919891 -5.0859375 7.23046875 C-4.59480469 8.29394531 -4.10367188 9.35742188 -3.59765625 10.453125 C-1.81137393 14.62111709 -1.84868486 17.72266852 -2.0859375 22.23046875 C-4.3959375 22.23046875 -6.7059375 22.23046875 -9.0859375 22.23046875 C-10.0759375 18.27046875 -11.0659375 14.31046875 -12.0859375 10.23046875 C-16.98156443 12.10749202 -16.98156443 12.10749202 -21.0859375 15.23046875 C-21.25271032 18.81390851 -21.25271032 18.81390851 -21.0859375 22.23046875 C-24.7159375 22.23046875 -28.3459375 22.23046875 -32.0859375 22.23046875 C-32.23339171 15.4475751 -28.92452409 12.27022042 -24.41015625 7.46484375 C-23.64316406 6.7275 -22.87617188 5.99015625 -22.0859375 5.23046875 C-21.51488281 4.67875 -20.94382813 4.12703125 -20.35546875 3.55859375 C-14.27674049 0.00133453 -6.86928081 -0.06366146 0 0 Z " fill="#F0F0F0" transform="translate(203.0859375,114.76953125)"/>
<path d="M0 0 C3.5625 0.375 3.5625 0.375 5.13012695 1.97485352 C6.89988626 4.94033906 7.94586038 7.87636281 9.04296875 11.15234375 C9.36954216 12.12488853 9.36954216 12.12488853 9.70271301 13.11708069 C10.15925646 14.48332107 10.61204392 15.85082166 11.0612793 17.21948242 C11.7478026 19.30582212 12.45016255 21.38634414 13.15429688 23.46679688 C13.59731637 24.79915961 14.03940509 26.13183228 14.48046875 27.46484375 C14.88031982 28.67003662 15.2801709 29.87522949 15.69213867 31.11694336 C16.47883531 34.06181478 16.75260743 36.35361155 16.5625 39.375 C14.5825 39.375 12.6025 39.375 10.5625 39.375 C8.51085763 35.91285351 8.5625 34.78110765 8.5625 30.375 C2.9525 30.375 -2.6575 30.375 -8.4375 30.375 C-9.49522111 33.01930277 -10.53688293 35.67314878 -11.4375 38.375 C-13.0875 38.375 -14.7375 38.375 -16.4375 38.375 C-14.92215631 31.69371193 -13.16044965 25.4061919 -10.48046875 19.1015625 C-8.75784888 14.59823414 -7.59271766 9.94029028 -6.3671875 5.28125 C-5.04224459 1.13941167 -4.3708833 0.47682363 0 0 Z " fill="#E1E1E1" transform="translate(263.4375,202.625)"/>
<path d="M0 0 C6 0 6 0 8.4921875 2.23828125 C9.27851563 3.25277344 10.06484375 4.26726562 10.875 5.3125 C11.29700684 5.8477832 11.71901367 6.38306641 12.15380859 6.93457031 C13.45982978 8.60623817 14.7338703 10.29796552 16 12 C16.61004883 12.81573486 16.61004883 12.81573486 17.23242188 13.64794922 C19.53143427 16.73689322 21.76929628 19.86049106 24 23 C24.33 15.41 24.66 7.82 25 0 C27.31 0 29.62 0 32 0 C32 12.21 32 24.42 32 37 C30.02 37 28.04 37 26 37 C25.65001953 36.25169922 25.65001953 36.25169922 25.29296875 35.48828125 C21.90988343 28.8296999 17.40416903 23.50215242 12.5234375 17.91796875 C10.59323784 15.68598864 8.77049884 13.36066512 7 11 C6.67 19.58 6.34 28.16 6 37 C4.02 37 2.04 37 0 37 C0 24.79 0 12.58 0 0 Z " fill="#E5E5E5" transform="translate(469,204)"/>
<path d="M0 0 C2.0078125 0.5234375 2.0078125 0.5234375 3.49194336 2.65161133 C5.11084768 5.71863847 6.20608105 8.69572288 7.26953125 11.99609375 C7.66591797 13.22521484 8.06230469 14.45433594 8.47070312 15.72070312 C8.67155518 16.35532471 8.87240723 16.98994629 9.0793457 17.64379883 C9.69550392 19.58654105 10.32456809 21.52476506 10.95507812 23.46289062 C14.0078125 33.01208436 14.0078125 33.01208436 14.0078125 37.5234375 C12.3578125 37.5234375 10.7078125 37.5234375 9.0078125 37.5234375 C8.3478125 34.8834375 7.6878125 32.2434375 7.0078125 29.5234375 C1.0678125 29.8534375 -4.8721875 30.1834375 -10.9921875 30.5234375 C-11.9821875 32.8334375 -12.9721875 35.1434375 -13.9921875 37.5234375 C-15.6421875 37.5234375 -17.2921875 37.5234375 -18.9921875 37.5234375 C-18.31314637 29.71446454 -15.17181687 23.08130374 -11.9296875 16.0234375 C-10.08013071 11.9456745 -8.79652658 7.80394992 -7.60546875 3.4921875 C-6.35667363 -0.51668346 -3.85752454 0.27045375 0 0 Z " fill="#E6E6E6" transform="translate(445.9921875,203.4765625)"/>
<path d="M0 0 C-0.33 1.32 -0.66 2.64 -1 4 C-1.70125 3.84273437 -2.4025 3.68546875 -3.125 3.5234375 C-6.11658559 2.97877382 -8.96112901 2.72577889 -12 2.625 C-13.5159375 2.55152344 -13.5159375 2.55152344 -15.0625 2.4765625 C-19.19251973 3.21249687 -20.55767321 4.62410264 -23 8 C-23.45143951 10.92544686 -23.61671917 13.16839523 -23.5 16.0625 C-23.50257813 16.76955078 -23.50515625 17.47660156 -23.5078125 18.20507812 C-23.42778956 22.4662998 -22.85021604 24.83898912 -20 28 C-20 28.66 -20 29.32 -20 30 C-18.39592672 30.02708567 -16.7917215 30.04643483 -15.1875 30.0625 C-13.84751953 30.07990234 -13.84751953 30.07990234 -12.48046875 30.09765625 C-9.86586209 30.11009967 -9.86586209 30.11009967 -7 29 C-5.97299556 26.67108904 -5.97299556 26.67108904 -5.3125 23.9375 C-5.06113281 23.01839844 -4.80976563 22.09929687 -4.55078125 21.15234375 C-4.36902344 20.44207031 -4.18726563 19.73179687 -4 19 C-6.97 19 -9.94 19 -13 19 C-13 17.35 -13 15.7 -13 14 C-8.05 14 -3.1 14 2 14 C2 20.93 2 27.86 2 35 C-0.475 35.495 -0.475 35.495 -3 36 C-3.33 34.68 -3.66 33.36 -4 32 C-4.598125 32.66 -5.19625 33.32 -5.8125 34 C-10.47183848 36.9235065 -14.63656649 36.6410155 -20 36 C-22.8125 35 -22.8125 35 -25 33 C-25.53625 32.53207031 -26.0725 32.06414062 -26.625 31.58203125 C-31.36948613 26.60691037 -31.71783024 21.39233118 -31.58056641 14.80517578 C-31.27912109 9.41095815 -30.38482786 6.1585028 -27 2 C-26.566875 1.401875 -26.13375 0.80375 -25.6875 0.1875 C-18.13240351 -5.12904938 -7.74812717 -4.04250113 0 0 Z " fill="#E3E3E3" transform="translate(418,206)"/>
<path d="M0 0 C7.92 0 15.84 0 24 0 C24 1.98 24 3.96 24 6 C18.06 6 12.12 6 6 6 C6 9.63 6 13.26 6 17 C10.95 17 15.9 17 21 17 C21 18.98 21 20.96 21 23 C16.05 23 11.1 23 6 23 C6 26.3 6 29.6 6 33 C11.94 33 17.88 33 24 33 C24 34.98 24 36.96 24 39 C20.18751574 39.02887236 16.3750593 39.04675492 12.5625 39.0625 C11.47388672 39.07087891 10.38527344 39.07925781 9.26367188 39.08789062 C8.22919922 39.09111328 7.19472656 39.09433594 6.12890625 39.09765625 C5.17056885 39.10289307 4.21223145 39.10812988 3.22485352 39.11352539 C1 39 1 39 0 38 C-0.08861992 35.1883662 -0.11522355 32.40141745 -0.09765625 29.58984375 C-0.0962413 28.74780899 -0.09482635 27.90577423 -0.09336853 27.03822327 C-0.08775263 24.33794665 -0.07519748 21.63775172 -0.0625 18.9375 C-0.05748705 17.11132932 -0.05292379 15.28515734 -0.04882812 13.45898438 C-0.03862716 8.97259915 -0.01905499 4.48639145 0 0 Z " fill="#E1E1E1" transform="translate(355,203)"/>
<path d="M0 0 C2.47240193 0.02306345 3.66582304 0.13902003 5.65625 1.63671875 C10.60150278 7.34388547 10.51941939 13.23223276 10.0625 20.4375 C9.017518 24.44326434 7.52280839 27.10179183 4.0625 29.4375 C0.61729732 30.05763648 -2.49762068 30.10827647 -5.9375 29.4375 C-8.4375 27.1875 -8.4375 27.1875 -9.9375 24.4375 C-10.29070312 23.85226563 -10.64390625 23.26703125 -11.0078125 22.6640625 C-13.13107272 17.57894349 -13.00506937 10.46411419 -11.1796875 5.2890625 C-9.84881009 3.14079582 -8.45523487 1.69636744 -6.1875 0.5625 C-4.11968343 0.4476213 -2.05833837 0.22870426 0 0 Z " fill="#0C0C0C" transform="translate(174.9375,207.5625)"/>
<path d="M0 0 C7.59 0 15.18 0 23 0 C23 1.98 23 3.96 23 6 C17.39 6 11.78 6 6 6 C6 9.96 6 13.92 6 18 C10.95 18 15.9 18 21 18 C21.33 19.65 21.66 21.3 22 23 C16.72 23 11.44 23 6 23 C6 27.95 6 32.9 6 38 C4.02 38 2.04 38 0 38 C0 25.46 0 12.92 0 0 Z " fill="#E6E6E6" transform="translate(201,203)"/>
<path d="M0 0 C11 0 11 0 14.6875 2.125 C17 5 17 5 17.625 8 C16.86972422 11.62532374 15.56159665 13.36306228 13 16 C10.04335481 17.4783226 7.25770263 17.06032783 4 17 C4 19.31 4 21.62 4 24 C2.68 24 1.36 24 0 24 C0 16.08 0 8.16 0 0 Z " fill="#D9D9D9" transform="translate(157,171)"/>
<path d="M0 0 C12.31393775 -0.49255751 12.31393775 -0.49255751 15.4375 1.75 C17 4 17 4 17.171875 6.140625 C16.78125 8.09375 16.390625 10.046875 16 12 C14.68 12.33 13.36 12.66 12 13 C12.3609375 13.47050781 12.721875 13.94101563 13.09375 14.42578125 C13.5578125 15.04839844 14.021875 15.67101562 14.5 16.3125 C14.9640625 16.92738281 15.428125 17.54226562 15.90625 18.17578125 C17 20 17 20 17 23 C15.68 23 14.36 23 13 23 C11.69140625 21.28515625 11.69140625 21.28515625 10.5625 19.0625 C8.70138443 15.62119896 8.70138443 15.62119896 5.1875 14 C4.465625 14 3.74375 14 3 14 C3 16.97 3 19.94 3 23 C2.01 23 1.02 23 0 23 C0 15.41 0 7.82 0 0 Z " fill="#D8D8D8" transform="translate(386,172)"/>
<path d="M0 0 C1.65 0 3.3 0 5 0 C5.33 10.56 5.66 21.12 6 32 C11.28 32.33 16.56 32.66 22 33 C22 34.32 22 35.64 22 37 C14.74 37 7.48 37 0 37 C0 24.79 0 12.58 0 0 Z " fill="#FAFAFA" transform="translate(322,204)"/>
<path d="M0 0 C1.65 0 3.3 0 5 0 C5.33 10.56 5.66 21.12 6 32 C11.28 32.33 16.56 32.66 22 33 C22 34.32 22 35.64 22 37 C14.74 37 7.48 37 0 37 C0 24.79 0 12.58 0 0 Z " fill="#FAFAFA" transform="translate(289,204)"/>
<path d="M0 0 C0.99 0 1.98 0 3 0 C3 7.92 3 15.84 3 24 C2.01 24 1.02 24 0 24 C-0.53625 23.01 -1.0725 22.02 -1.625 21 C-5.72634506 13.43824208 -5.72634506 13.43824208 -12 8 C-12 13.28 -12 18.56 -12 24 C-13.32 23.67 -14.64 23.34 -16 23 C-16 15.74 -16 8.48 -16 1 C-10.24641911 2.15071618 -9.62686822 3.0964547 -6.1875 7.5625 C-5.39730469 8.57441406 -4.60710937 9.58632812 -3.79296875 10.62890625 C-3.20128906 11.41136719 -2.60960937 12.19382813 -2 13 C-1.93941406 12.14535156 -1.87882812 11.29070312 -1.81640625 10.41015625 C-1.73261719 9.30542969 -1.64882813 8.20070312 -1.5625 7.0625 C-1.48128906 5.96035156 -1.40007812 4.85820312 -1.31640625 3.72265625 C-1 1 -1 1 0 0 Z " fill="#D5D5D5" transform="translate(261,171)"/>
<path d="M0 0 C2.4921875 0.09375 2.4921875 0.09375 5 1 C6.2578125 2.96875 6.2578125 2.96875 7.125 5.5 C7.44210938 6.39976562 7.75921875 7.29953125 8.0859375 8.2265625 C8.38757813 9.14179688 8.68921875 10.05703125 9 11 C9.30164063 11.83273438 9.60328125 12.66546875 9.9140625 13.5234375 C11.26479663 17.32316621 12 19.89019876 12 24 C10.35 23.67 8.7 23.34 7 23 C7 21.35 7 19.7 7 18 C5.3739713 18.06000106 3.74898451 18.1487885 2.125 18.25 C1.22007812 18.29640625 0.31515625 18.3428125 -0.6171875 18.390625 C-3.17110544 18.75611148 -3.17110544 18.75611148 -4.3203125 21.046875 C-4.54460937 21.69140625 -4.76890625 22.3359375 -5 23 C-5.99 22.67 -6.98 22.34 -8 22 C-7.0521391 18.70522482 -6.08995021 15.41480699 -5.125 12.125 C-4.85558594 11.18785156 -4.58617187 10.25070313 -4.30859375 9.28515625 C-4.04433594 8.38925781 -3.78007812 7.49335938 -3.5078125 6.5703125 C-3.14647217 5.32918701 -3.14647217 5.32918701 -2.77783203 4.06298828 C-2 2 -2 2 0 0 Z " fill="#C9C9C9" transform="translate(184,171)"/>
<path d="M0 0 C1.93166016 0.01740234 1.93166016 0.01740234 3.90234375 0.03515625 C5.19269531 0.04417969 6.48304688 0.05320313 7.8125 0.0625 C8.81152344 0.07410156 9.81054688 0.08570313 10.83984375 0.09765625 C10.83984375 1.41765625 10.83984375 2.73765625 10.83984375 4.09765625 C7.20984375 4.09765625 3.57984375 4.09765625 -0.16015625 4.09765625 C-0.16015625 6.40765625 -0.16015625 8.71765625 -0.16015625 11.09765625 C3.13984375 11.09765625 6.43984375 11.09765625 9.83984375 11.09765625 C9.50984375 12.08765625 9.17984375 13.07765625 8.83984375 14.09765625 C6.19984375 14.09765625 3.55984375 14.09765625 0.83984375 14.09765625 C0.83984375 15.74765625 0.83984375 17.39765625 0.83984375 19.09765625 C4.13984375 19.09765625 7.43984375 19.09765625 10.83984375 19.09765625 C10.83984375 20.74765625 10.83984375 22.39765625 10.83984375 24.09765625 C8.52740583 24.12451037 6.21488105 24.14398466 3.90234375 24.16015625 C2.61457031 24.17175781 1.32679688 24.18335938 0 24.1953125 C-3.16015625 24.09765625 -3.16015625 24.09765625 -4.16015625 23.09765625 C-4.25932195 21.47508081 -4.29095402 19.84825794 -4.29296875 18.22265625 C-4.29425781 17.2378125 -4.29554688 16.25296875 -4.296875 15.23828125 C-4.29300781 14.201875 -4.28914062 13.16546875 -4.28515625 12.09765625 C-4.29095703 10.54304687 -4.29095703 10.54304687 -4.296875 8.95703125 C-4.29558594 7.9721875 -4.29429687 6.98734375 -4.29296875 5.97265625 C-4.29184082 5.06257812 -4.29071289 4.1525 -4.28955078 3.21484375 C-4.07899223 -0.23037087 -3.54112926 0.10942921 0 0 Z " fill="#C0C0C0" transform="translate(228.16015625,170.90234375)"/>
<path d="M0 0 C1.65 0 3.3 0 5 0 C12.63855748 16.40157267 12.63855748 16.40157267 12 23 C11.01 23 10.02 23 9 23 C8.34 21.35 7.68 19.7 7 18 C3.7 17.67 0.4 17.34 -3 17 C-3.33 18.65 -3.66 20.3 -4 22 C-4.99 22 -5.98 22 -7 22 C-6.46106222 15.80221553 -4.42575004 10.69364727 -2 5 C-1.32973605 3.33477675 -0.66205726 1.66850304 0 0 Z " fill="#BEBEBE" transform="translate(296,172)"/>
<path d="M0 0 C4.62 0 9.24 0 14 0 C14.33 1.32 14.66 2.64 15 4 C11.37 4 7.74 4 4 4 C4 5.98 4 7.96 4 10 C6.97 10 9.94 10 13 10 C13 11.32 13 12.64 13 14 C10.03 14 7.06 14 4 14 C4 15.98 4 17.96 4 20 C7.63 20 11.26 20 15 20 C15 21.32 15 22.64 15 24 C10.05 24 5.1 24 0 24 C0 16.08 0 8.16 0 0 Z " fill="#ADADAD" transform="translate(465,171)"/>
<path d="M0 0 C1.19109375 -0.00386719 1.19109375 -0.00386719 2.40625 -0.0078125 C4.5 0.125 4.5 0.125 6.5 1.125 C6.5 2.445 6.5 3.765 6.5 5.125 C5.32630859 5.10759766 5.32630859 5.10759766 4.12890625 5.08984375 C3.11699219 5.08082031 2.10507812 5.07179687 1.0625 5.0625 C-0.45150391 5.04509766 -0.45150391 5.04509766 -1.99609375 5.02734375 C-4.44021067 4.83887324 -4.44021067 4.83887324 -5.5 6.125 C-5.62494616 7.74639437 -5.67571624 9.37384122 -5.6875 11 C-5.70876953 12.32644531 -5.70876953 12.32644531 -5.73046875 13.6796875 C-5.67068424 16.38266726 -5.67068424 16.38266726 -3.5 19.125 C-1.29274927 19.48862818 -1.29274927 19.48862818 1.125 19.3125 C1.94226563 19.28542969 2.75953125 19.25835937 3.6015625 19.23046875 C4.54128906 19.17826172 4.54128906 19.17826172 5.5 19.125 C5.5 20.445 5.5 21.765 5.5 23.125 C3.94969882 24.67530118 2.46323999 24.36905099 0.3125 24.4375 C-4.32850049 24.39308851 -6.94919062 23.23195821 -10.5 20.125 C-11.95053871 15.77338388 -12.1490053 11.66803712 -11.5 7.125 C-8.78986104 2.06877061 -5.62435824 -0.0182609 0 0 Z " fill="#AAAAAA" transform="translate(452.5,170.875)"/>
<path d="M0 0 C4.95 0 9.9 0 15 0 C15 0.99 15 1.98 15 3 C11.37 3 7.74 3 4 3 C4 4.98 4 6.96 4 9 C6.97 9 9.94 9 13 9 C13 10.32 13 11.64 13 13 C10.03 13 7.06 13 4 13 C4 14.98 4 16.96 4 19 C7.63 19 11.26 19 15 19 C15 19.99 15 20.98 15 22 C10.05 22 5.1 22 0 22 C0 14.74 0 7.48 0 0 Z " fill="#C8C8C8" transform="translate(365,172)"/>
<path d="M0 0 C0.99 0.66 1.98 1.32 3 2 C3 2.99 3 3.98 3 5 C-0.3 4.67 -3.6 4.34 -7 4 C-7 5.65 -7 7.3 -7 9 C-6.28972656 9.13277344 -5.57945312 9.26554688 -4.84765625 9.40234375 C-3.92855469 9.57894531 -3.00945312 9.75554687 -2.0625 9.9375 C-1.14597656 10.11152344 -0.22945313 10.28554687 0.71484375 10.46484375 C3 11 3 11 4 12 C4.47044847 19.29195129 4.47044847 19.29195129 2.83984375 21.74609375 C0.26449703 23.50126635 -1.6046937 23.29630493 -4.6875 23.1875 C-6.17830078 23.14689453 -6.17830078 23.14689453 -7.69921875 23.10546875 C-8.45847656 23.07066406 -9.21773438 23.03585938 -10 23 C-10.33 21.68 -10.66 20.36 -11 19 C-7.7 19 -4.4 19 -1 19 C-0.67 17.35 -0.34 15.7 0 14 C-0.9075 14.04125 -1.815 14.0825 -2.75 14.125 C-7.73029772 13.93345009 -7.73029772 13.93345009 -10 12 C-10.90555151 8.50715848 -11.36801278 6.07572966 -10.1875 2.625 C-7.57432896 -0.95091827 -4.09017259 -0.21527224 0 0 Z " fill="#E5E5E5" transform="translate(496,171)"/>
<path d="M0 0 C0.90105469 0.02707031 1.80210937 0.05414063 2.73046875 0.08203125 C3.76107422 0.13423828 3.76107422 0.13423828 4.8125 0.1875 C5.4725 1.5075 6.1325 2.8275 6.8125 4.1875 C3.1825 4.1875 -0.4475 4.1875 -4.1875 4.1875 C-3.8575 5.5075 -3.5275 6.8275 -3.1875 8.1875 C-1.17118284 9.25400781 -1.17118284 9.25400781 1.25 9.8125 C5.63369205 11.00869205 5.63369205 11.00869205 7.8125 13.1875 C8.25 16.0625 8.25 16.0625 7.8125 19.1875 C5.68941138 21.70866774 4.10994211 22.98556349 0.8046875 23.5 C-3.02542143 23.61306595 -4.96424476 23.33633682 -8.1875 21.1875 C-8.1875 20.1975 -8.1875 19.2075 -8.1875 18.1875 C-4.2275 18.1875 -0.2675 18.1875 3.8125 18.1875 C3.4825 16.8675 3.1525 15.5475 2.8125 14.1875 C1.554375 13.919375 0.29625 13.65125 -1 13.375 C-3.38158877 12.7637958 -5.09351547 12.24624033 -7.1875 10.9375 C-8.7259479 8.24521617 -8.5665979 6.22028321 -8.1875 3.1875 C-5.83934143 -0.09380302 -3.89660245 -0.15181568 0 0 Z " fill="#C3C3C3" transform="translate(351.1875,171.8125)"/>
<path d="M0 0 C8.71782637 -0.16311941 17.31238511 0.34344611 26 1 C24.60201195 4.37847113 23.21415759 6.20769856 20 8 C14.67152172 8.82816108 8.57118422 9.45968271 3.75 6.72265625 C2.125 5.125 2.125 5.125 0 2 C0 1.34 0 0.68 0 0 Z " fill="#F3F3F3" transform="translate(147,258)"/>
<path d="M0 0 C0.99 0 1.98 0 3 0 C3.34933594 0.99902344 3.69867188 1.99804688 4.05859375 3.02734375 C4.51807919 4.33078205 4.97772279 5.6341646 5.4375 6.9375 C5.66759766 7.59685547 5.89769531 8.25621094 6.13476562 8.93554688 C7.11964592 12.22328622 7.11964592 12.22328622 9 15 C10.98 10.05 12.96 5.1 15 0 C15.99 0 16.98 0 18 0 C17.60293233 6.75015037 15.926154 17.073846 11 22 C9.33382885 22.04063832 7.66611905 22.042721 6 22 C4.9929564 18.8980736 3.99559195 15.79311902 3 12.6875 C2.71382813 11.80642578 2.42765625 10.92535156 2.1328125 10.01757812 C1.86210937 9.17001953 1.59140625 8.32246094 1.3125 7.44921875 C1.06113281 6.66893311 0.80976563 5.88864746 0.55078125 5.0847168 C0 3 0 3 0 0 Z " fill="#B6B6B6" transform="translate(407,172)"/>
<path d="M0 0 C2.97 0 5.94 0 9 0 C8.67 0.66 8.34 1.32 8 2 C6.35 2 4.7 2 3 2 C3 5.3 3 8.6 3 12 C4.093125 11.835 5.18625 11.67 6.3125 11.5 C10 11 10 11 13 11 C13.268125 11.94875 13.53625 12.8975 13.8125 13.875 C14.74986588 17.25267273 14.74986588 17.25267273 18 19 C17.67 20.32 17.34 21.64 17 23 C15.25 22.875 15.25 22.875 13 22 C12.360625 21.01 11.72125 20.02 11.0625 19 C9.30571613 15.78763 9.30571613 15.78763 6.25 15.125 C5.5075 15.08375 4.765 15.0425 4 15 C4 17.31 4 19.62 4 22 C2.68 22 1.36 22 0 22 C0 14.74 0 7.48 0 0 Z " fill="#D4D4D4" transform="translate(201,172)"/>
<path d="M0 0 C1.77074917 -0.02705729 3.54161711 -0.04642195 5.3125 -0.0625 C6.29863281 -0.07410156 7.28476563 -0.08570313 8.30078125 -0.09765625 C11.22809453 0.00825233 13.23683967 0.49122644 15.6875 2.125 C17.75552614 5.07932306 17.37454838 7.50421515 17 11 C15.625 12.9375 15.625 12.9375 14 14 C13.34 14 12.68 14 12 14 C11.67 13.34 11.34 12.68 11 12 C10.67 12.33 10.34 12.66 10 13 C7.66702567 13.04092937 5.33294775 13.04241723 3 13 C3 9.7 3 6.4 3 3 C4.65 2.67 6.3 2.34 8 2 C5.36 1.67 2.72 1.34 0 1 C0 0.67 0 0.34 0 0 Z " fill="#B1B1B1" transform="translate(201,171)"/>
<path d="M0 0 C8.04212755 -0.16677223 15.98603754 0.3533402 24 1 C22.34360616 4.39846323 21.1631432 6.78579976 18 9 C13.4192344 10.03148445 9.62204275 10.00399752 5.5703125 7.49609375 C3.53081464 5.75780287 1.68686368 4.08266409 0 2 C0 1.34 0 0.68 0 0 Z " fill="#EBEBEB" transform="translate(215,258)"/>
<path d="M0 0 C5.94 0 11.88 0 18 0 C18 1.32 18 2.64 18 4 C15.69 4 13.38 4 11 4 C11 10.6 11 17.2 11 24 C9.68 24 8.36 24 7 24 C7 17.4 7 10.8 7 4 C4.69 4 2.38 4 0 4 C0 2.68 0 1.36 0 0 Z " fill="#CBCBCB" transform="translate(269,171)"/>
<path d="M0 0 C2.6541779 3.15611413 3.92267064 6.15170576 5.1875 10.0625 C5.53167969 11.10535156 5.87585938 12.14820313 6.23046875 13.22265625 C7 16 7 16 7 19 C2.71 19 -1.58 19 -6 19 C-5.59524765 11.84937514 -3.17476348 6.37295696 0 0 Z " fill="#252525" transform="translate(263,209)"/>
<path d="M0 0 C0.66 0 1.32 0 2 0 C2.84334329 2.22582389 3.67478551 4.45496026 4.5 6.6875 C4.73847656 7.31333984 4.97695313 7.93917969 5.22265625 8.58398438 C6.62380414 12.40711648 7 14.81115597 7 19 C3.04 19 -0.92 19 -5 19 C-4.39297368 12.3227105 -2.22368606 6.29872004 0 0 Z " fill="#202020" transform="translate(443,209)"/>
<path d="M0 0 C7.59 0 15.18 0 23 0 C20.07692308 5.84615385 20.07692308 5.84615385 17 8 C12.62622111 8.90070839 8.72315233 9.0003433 4.79296875 6.71875 C3.00528252 5.2332592 1.43240957 3.83082812 0 2 C0 1.34 0 0.68 0 0 Z " fill="#E9E9E9" transform="translate(183,259)"/>
<path d="M0 0 C2.125 0.375 2.125 0.375 4 1 C3.01 1.495 3.01 1.495 2 2 C2.474375 3.19625 2.94875 4.3925 3.4375 5.625 C4.73482773 9.06414238 5.54236951 12.33895604 6 16 C3.03 16 0.06 16 -3 16 C-5.19332199 11.61335603 -5.17725559 11.22164201 -3.75 6.875 C-3.47671875 6.00617188 -3.2034375 5.13734375 -2.921875 4.2421875 C-2 2 -2 2 0 0 Z " fill="#C4C4C4" transform="translate(184,171)"/>
<path d="M0 0 C1.65 0 3.3 0 5 0 C5.50512244 1.60256108 6.00391627 3.20711792 6.5 4.8125 C6.7784375 5.70582031 7.056875 6.59914062 7.34375 7.51953125 C8 10 8 10 8 13 C7.34 13 6.68 13 6 13 C5.01 10.03 4.02 7.06 3 4 C1.33167423 6.50248865 0.37618326 8.41149187 -0.625 11.1875 C-0.88539063 11.90292969 -1.14578125 12.61835938 -1.4140625 13.35546875 C-1.60742188 13.89816406 -1.80078125 14.44085938 -2 15 C0.64 15 3.28 15 6 15 C6 15.33 6 15.66 6 16 C3.03 16 0.06 16 -3 16 C-3.33 17.98 -3.66 19.96 -4 22 C-4.99 22 -5.98 22 -7 22 C-6.46106222 15.80221553 -4.42575004 10.69364727 -2 5 C-1.32973605 3.33477675 -0.66205726 1.66850304 0 0 Z " fill="#F7F7F7" transform="translate(296,172)"/>
<path d="M0 0 C1.32 0 2.64 0 4 0 C4 7.92 4 15.84 4 24 C2.68 23.67 1.36 23.34 0 23 C0 15.41 0 7.82 0 0 Z " fill="#CBCBCB" transform="translate(431,171)"/>
<path d="M0 0 C3.63 0 7.26 0 11 0 C10.67 0.66 10.34 1.32 10 2 C7.69 2 5.38 2 3 2 C3 5.63 3 9.26 3 13 C4.98 13 6.96 13 9 13 C9 13.33 9 13.66 9 14 C7.02 14 5.04 14 3 14 C3 16.97 3 19.94 3 23 C2.01 23 1.02 23 0 23 C0 15.41 0 7.82 0 0 Z " fill="#EEEEEE" transform="translate(386,172)"/>
<path d="M0 0 C0.99 0 1.98 0 3 0 C3 6.93 3 13.86 3 21 C6.3 21 9.6 21 13 21 C13 21.66 13 22.32 13 23 C8.71 23 4.42 23 0 23 C0 15.41 0 7.82 0 0 Z " fill="#EEEEEE" transform="translate(314,171)"/>
<path d="M0 0 C0.66 0 1.32 0 2 0 C2 1.98 2 3.96 2 6 C2.66 6 3.32 6 4 6 C4.99 7.485 4.99 7.485 6 9 C8.20725073 9.36362818 8.20725073 9.36362818 10.625 9.1875 C11.44226563 9.16042969 12.25953125 9.13335937 13.1015625 9.10546875 C13.72804688 9.07066406 14.35453125 9.03585938 15 9 C15 10.32 15 11.64 15 13 C13.44049449 14.55950551 11.91122869 14.28196698 9.75 14.375 C6.14253975 14.31755637 5.1254075 14.083605 2 12 C-0.59840959 8.10238562 -0.84486463 5.65406121 -1 1 C-0.67 0.67 -0.34 0.34 0 0 Z " fill="#E3E3E3" transform="translate(443,181)"/>
<path d="M0 0 C0.90105469 0.02707031 1.80210937 0.05414063 2.73046875 0.08203125 C3.76107422 0.13423828 3.76107422 0.13423828 4.8125 0.1875 C5.4725 1.5075 6.1325 2.8275 6.8125 4.1875 C3.1825 4.1875 -0.4475 4.1875 -4.1875 4.1875 C-3.8575 5.5075 -3.5275 6.8275 -3.1875 8.1875 C-0.19134054 9.4920656 -0.19134054 9.4920656 2.8125 10.1875 C2.4825 10.8475 2.1525 11.5075 1.8125 12.1875 C-5.9375 11.4375 -5.9375 11.4375 -8.1875 9.1875 C-8.74278672 3.96780486 -8.74278672 3.96780486 -6.9921875 1.5078125 C-4.56011522 -0.27149579 -2.97920104 -0.11607277 0 0 Z " fill="#DDDDDD" transform="translate(351.1875,171.8125)"/>
<path d="M0 0 C3.375 -0.125 3.375 -0.125 7 0 C9 2 9 2 9.25 5 C9 8 9 8 7 10 C3.375 10.125 3.375 10.125 0 10 C0 6.7 0 3.4 0 0 Z " fill="#1C1C1C" transform="translate(389,174)"/>
<path d="M0 0 C6.75 0.75 6.75 0.75 9 3 C9.55335479 8.20153503 9.55335479 8.20153503 7.8359375 10.6796875 C5.26882578 12.52582316 3.43665913 12.29776444 0.3125 12.1875 C-0.68136719 12.16042969 -1.67523438 12.13335937 -2.69921875 12.10546875 C-3.45847656 12.07066406 -4.21773438 12.03585938 -5 12 C-5.33 10.68 -5.66 9.36 -6 8 C-2.7 8 0.6 8 4 8 C4.33 6.35 4.66 4.7 5 3 C2.525 2.01 2.525 2.01 0 1 C0 0.67 0 0.34 0 0 Z " fill="#F2F2F2" transform="translate(491,182)"/>
<path d="M0 0 C3.375 -0.125 3.375 -0.125 7 0 C9 2 9 2 9.25 4.5 C9 7 9 7 7 9 C3.375 9.125 3.375 9.125 0 9 C0 6.03 0 3.06 0 0 Z " fill="#070707" transform="translate(161,175)"/>
<path d="M0 0 C2.31 0 4.62 0 7 0 C7 0.33 7 0.66 7 1 C5.02 1 3.04 1 1 1 C1 3.97 1 6.94 1 10 C4.465 9.505 4.465 9.505 8 9 C8.66 7.35 9.32 5.7 10 4 C10.33 4.99 10.66 5.98 11 7 C11.66 7 12.32 7 13 7 C13 5.35 13 3.7 13 2 C13.33 2 13.66 2 14 2 C14.35671933 5.83473284 14.29771416 7.55342875 12.125 10.8125 C9.2342226 13.78830026 8.61077792 13.98946935 4.375 14.0625 C3.26125 14.041875 2.1475 14.02125 1 14 C-0.04976964 10.85069107 -0.10131595 8.61185544 -0.0625 5.3125 C-0.05347656 4.31863281 -0.04445312 3.32476562 -0.03515625 2.30078125 C-0.02355469 1.54152344 -0.01195312 0.78226563 0 0 Z " fill="#A9A9A9" transform="translate(160,174)"/>
<path d="M0 0 C6.75 -0.125 6.75 -0.125 9 1 C9 2.98 9 4.96 9 7 C6.04335481 8.4783226 3.25770263 8.06032783 0 8 C0 5.36 0 2.72 0 0 Z " fill="#090909" transform="translate(205,175)"/>
<path d="M0 0 C2.97 0 5.94 0 9 0 C8.67 0.66 8.34 1.32 8 2 C6.35 2 4.7 2 3 2 C3 5.3 3 8.6 3 12 C2.34 12 1.68 12 1 12 C1.33 12.66 1.66 13.32 2 14 C2.13415472 16.6723621 2.04318541 19.32250488 2 22 C1.34 22 0.68 22 0 22 C0 14.74 0 7.48 0 0 Z " fill="#EDEDED" transform="translate(201,172)"/>
<path d="M0 0 C4.62 0 9.24 0 14 0 C14 0.99 14 1.98 14 3 C10.04 3 6.08 3 2 3 C1.67 5.31 1.34 7.62 1 10 C0.67 10 0.34 10 0 10 C0 6.7 0 3.4 0 0 Z " fill="#E3E3E3" transform="translate(466,172)"/>
<path d="M0 0 C2.97 0 5.94 0 9 0 C13.42857143 7.42857143 13.42857143 7.42857143 14 11 C12.68 11 11.36 11 10 11 C9.69707031 10.36191406 9.39414062 9.72382813 9.08203125 9.06640625 C8.66308594 8.24011719 8.24414062 7.41382813 7.8125 6.5625 C7.40644531 5.73878906 7.00039063 4.91507813 6.58203125 4.06640625 C5.13366813 1.75309288 5.13366813 1.75309288 2.32421875 1.21484375 C1.55722656 1.14394531 0.79023438 1.07304687 0 1 C0 0.67 0 0.34 0 0 Z " fill="#DBDBDB" transform="translate(389,184)"/>
<path d="M0 0 C0.66 0.33 1.32 0.66 2 1 C2.6328125 3.28515625 2.6328125 3.28515625 3.125 6.0625 C3.29257812 6.98160156 3.46015625 7.90070313 3.6328125 8.84765625 C3.75398438 9.55792969 3.87515625 10.26820313 4 11 C1.69 11 -0.62 11 -3 11 C-2.69217504 9.35328588 -2.37860766 7.70764424 -2.0625 6.0625 C-1.88847656 5.14597656 -1.71445312 4.22945312 -1.53515625 3.28515625 C-1 1 -1 1 0 0 Z " fill="#2C2C2C" transform="translate(298,175)"/>
<path d="M0 0 C0.99 0 1.98 0 3 0 C4.65 6.27 6.3 12.54 8 19 C7.01 19 6.02 19 5 19 C4.16142312 16.39741676 3.32896656 13.79314353 2.5 11.1875 C2.14228516 10.08051758 2.14228516 10.08051758 1.77734375 8.95117188 C0.80059864 5.86744804 0 3.25504191 0 0 Z " fill="#ECECEC" transform="translate(407,172)"/>
<path d="M0 0 C0.99 0.33 1.98 0.66 3 1 C3.33 3.64 3.66 6.28 4 9 C2.02 9 0.04 9 -2 9 C-1.125 1.125 -1.125 1.125 0 0 Z " fill="#1F1F1F" transform="translate(185,177)"/>
<path d="M0 0 C0.99 0 1.98 0 3 0 C3 2.31 3 4.62 3 7 C6.63 7 10.26 7 14 7 C14 7.66 14 8.32 14 9 C9.38 9 4.76 9 0 9 C0 6.03 0 3.06 0 0 Z " fill="#F5F5F5" transform="translate(365,185)"/>
<path d="M0 0 C2 2 2 2 3 6 C6.3 6.33 9.6 6.66 13 7 C13 7.66 13 8.32 13 9 C8.71 9 4.42 9 0 9 C0 6.03 0 3.06 0 0 Z " fill="#FCFCFC" transform="translate(466,185)"/>
<path d="M0 0 C0.99 0.66 1.98 1.32 3 2 C3 2.99 3 3.98 3 5 C1.58249437 4.88490339 0.16598831 4.75746342 -1.25 4.625 C-2.03890625 4.55539063 -2.8278125 4.48578125 -3.640625 4.4140625 C-6.085877 3.98492887 -7.84836903 3.21399362 -10 2 C-6.31282562 -0.45811625 -4.35654296 -0.31118164 0 0 Z " fill="#BABABA" transform="translate(496,171)"/>
<path d="M0 0 C0.66 0.99 1.32 1.98 2 3 C4.19454681 3.57993699 4.19454681 3.57993699 6.625 3.6875 C7.44226563 3.75324219 8.25953125 3.81898438 9.1015625 3.88671875 C9.72804687 3.92410156 10.35453125 3.96148437 11 4 C11 4.33 11 4.66 11 5 C10.30132812 5.02578125 9.60265625 5.0515625 8.8828125 5.078125 C7.97273437 5.13484375 7.06265625 5.1915625 6.125 5.25 C5.22007812 5.29640625 4.31515625 5.3428125 3.3828125 5.390625 C0.82889456 5.75611148 0.82889456 5.75611148 -0.3203125 8.046875 C-0.54460937 8.69140625 -0.76890625 9.3359375 -1 10 C-1.99 9.67 -2.98 9.34 -4 9 C-2.68 6.03 -1.36 3.06 0 0 Z " fill="#ECECEC" transform="translate(180,184)"/>
<path d="M0 0 C0.33 0.66 0.66 1.32 1 2 C0.67 2.99 0.34 3.98 0 5 C0.99 4.67 1.98 4.34 3 4 C3 6.64 3 9.28 3 12 C2.67 12 2.34 12 2 12 C2 10.02 2 8.04 2 6 C1.01 6.495 1.01 6.495 0 7 C0.144375 8.27875 0.28875 9.5575 0.4375 10.875 C0.51871094 11.59429687 0.59992188 12.31359375 0.68359375 13.0546875 C0.91292961 15.07404316 0.91292961 15.07404316 2 17 C1.01 16.67 0.02 16.34 -1 16 C-1.97551509 13.07345473 -2.16478088 11.05345004 -2.1875 8 C-2.20167969 7.13375 -2.21585937 6.2675 -2.23046875 5.375 C-2 3 -2 3 0 0 Z " fill="#7F7F7F" transform="translate(443,175)"/>
<path d="M0 0 C0.99 0 1.98 0 3 0 C2.25 7.75 2.25 7.75 0 10 C-0.99 10 -1.98 10 -3 10 C-2.01 6.7 -1.02 3.4 0 0 Z " fill="#CFCFCF" transform="translate(422,172)"/>
<path d="M0 0 C0.61875 0.804375 1.2375 1.60875 1.875 2.4375 C3.74164041 5.03874519 3.74164041 5.03874519 6 6 C5.67 7.32 5.34 8.64 5 10 C3.125 9.8125 3.125 9.8125 1 9 C-0.5225431 6.31742407 -1.12235992 4.75455283 -0.625 1.6875 C-0.41875 1.130625 -0.2125 0.57375 0 0 Z " fill="#C4C4C4" transform="translate(213,185)"/>
<path d="M0 0 C0.33 0 0.66 0 1 0 C1 1.65 1 3.3 1 5 C4.96 5.99 4.96 5.99 9 7 C8.67 7.66 8.34 8.32 8 9 C0.125 8.125 0.125 8.125 -1 7 C-1.125 4 -1.125 4 -1 1 C-0.67 0.67 -0.34 0.34 0 0 Z " fill="#F2F2F2" transform="translate(345,175)"/>
<path d="M0 0 C0.33 0 0.66 0 1 0 C1 1.65 1 3.3 1 5 C-6.28571429 8.57142857 -6.28571429 8.57142857 -11 7 C-11 6.01 -11 5.02 -11 4 C-7.7 4 -4.4 4 -1 4 C-0.67 2.68 -0.34 1.36 0 0 Z " fill="#BABABA" transform="translate(496,186)"/>
<path d="M0 0 C0.66 0 1.32 0 2 0 C0.52278578 3.45201639 -1.43794001 5.64961936 -4.125 8.25 C-4.84945312 8.95640625 -5.57390625 9.6628125 -6.3203125 10.390625 C-6.87460938 10.92171875 -7.42890625 11.4528125 -8 12 C-8 8.24111186 -7.049166 7.58681685 -4.5625 4.875 C-3.92441406 4.17117187 -3.28632813 3.46734375 -2.62890625 2.7421875 C-1.76410115 1.81724008 -0.89538137 0.89538137 0 0 Z " fill="#C8C8C8" transform="translate(194,25)"/>
<path d="M0 0 C3.3 0.66 6.6 1.32 10 2 C10 2.99 10 3.98 10 5 C9.401875 4.67 8.80375 4.34 8.1875 4 C5.94613529 2.79212012 5.94613529 2.79212012 3 3 C3.66 3.66 4.32 4.32 5 5 C-0.75 4.25 -0.75 4.25 -3 2 C-2.01 2 -1.02 2 0 2 C0 1.34 0 0.68 0 0 Z " fill="#999999" transform="translate(489,180)"/>
<path d="M0 0 C3.875 1.875 3.875 1.875 5 3 C5.04080783 4.99958364 5.04254356 7.00045254 5 9 C4.34 9 3.68 9 3 9 C0.56839395 5.63316085 0 4.26649636 0 0 Z " fill="#E2E2E2" transform="translate(168,172)"/>
<path d="M0 0 C0.66 0.33 1.32 0.66 2 1 C-1.63 4.63 -5.26 8.26 -9 12 C-9.66 11.67 -10.32 11.34 -11 11 C-7.6189962 6.86378916 -4.33409466 3.18683431 0 0 Z " fill="#3C3C3C" transform="translate(38,109)"/>
<path d="M0 0 C0.66 0.33 1.32 0.66 2 1 C0.38113585 2.67262717 -1.2452729 4.33795537 -2.875 6 C-3.77992187 6.928125 -4.68484375 7.85625 -5.6171875 8.8125 C-8 11 -8 11 -10 11 C-8.55218207 7.55571735 -6.72305391 5.63869038 -3.875 3.25 C-3.15054688 2.63640625 -2.42609375 2.0228125 -1.6796875 1.390625 C-0.84824219 0.70226562 -0.84824219 0.70226562 0 0 Z " fill="#C4C4C4" transform="translate(124,12)"/>
<path d="M0 0 C1.7290774 -0.02725341 3.45828176 -0.04650987 5.1875 -0.0625 C6.15042969 -0.07410156 7.11335937 -0.08570313 8.10546875 -0.09765625 C10.85576513 -0.00486622 13.32479591 0.37888315 16 1 C16 1.33 16 1.66 16 2 C11.05 2.33 6.1 2.66 1 3 C0.67 2.01 0.34 1.02 0 0 Z " fill="#ABABAB" transform="translate(147,258)"/>
<path d="M0 0 C-0.66 1.32 -1.32 2.64 -2 4 C-4.97 4 -7.94 4 -11 4 C-11 3.67 -11 3.34 -11 3 C-8.69 3 -6.38 3 -4 3 C-4 2.34 -4 1.68 -4 1 C-5.65 1 -7.3 1 -9 1 C-9 0.67 -9 0.34 -9 0 C-5.62182575 -0.84454356 -3.32534757 -1.10844919 0 0 Z " fill="#939393" transform="translate(459,191)"/>
<path d="M0 0 C0.66 0.33 1.32 0.66 2 1 C-1.63 4.63 -5.26 8.26 -9 12 C-9 8.00102358 -7.64683965 6.93298448 -5 4 C-3.36643049 2.62631655 -1.7074998 1.28062485 0 0 Z " fill="#BEBEBE" transform="translate(45,118)"/>
<path d="M0 0 C10.55808656 -0.18451025 10.55808656 -0.18451025 15 1 C15 1.33 15 1.66 15 2 C10.38 2.33 5.76 2.66 1 3 C0.67 2.01 0.34 1.02 0 0 Z " fill="#A9A9A9" transform="translate(215,258)"/>
<path d="M0 0 C4.875 4.75 4.875 4.75 6 7 C4.68 7.33 3.36 7.66 2 8 C0.4375 5.6875 0.4375 5.6875 -1 3 C-0.67 2.01 -0.34 1.02 0 0 Z " fill="#C6C6C6" transform="translate(253,178)"/>
<path d="M0 0 C2.0625 0.4375 2.0625 0.4375 4 1 C3.01 1.495 3.01 1.495 2 2 C2.33 3.65 2.66 5.3 3 7 C1.35 6.67 -0.3 6.34 -2 6 C-1.125 1.125 -1.125 1.125 0 0 Z " fill="#A9A9A9" transform="translate(184,171)"/>
<path d="M0 0 C0.598125 0.20625 1.19625 0.4125 1.8125 0.625 C-2.8125 5.5 -2.8125 5.5 -6.1875 6.625 C-5.875 4.25 -5.875 4.25 -5.1875 1.625 C-2.1875 -0.375 -2.1875 -0.375 0 0 Z " fill="#F6F6F6" transform="translate(449.1875,173.375)"/>
<path d="M0 0 C-1.28682545 2.57365089 -2.44697943 2.72348972 -5 4 C-6.68889872 5.3050581 -8.3603279 6.63360658 -10 8 C-9.6684371 4.9054129 -8.97117406 3.97195314 -6.6875 1.75 C-4 0 -4 0 0 0 Z " fill="#3F3F3F" transform="translate(191,125)"/>
<path d="M0 0 C-1.44077046 3.36179774 -3.24750021 5.59156268 -6 8 C-6.66 8 -7.32 8 -8 8 C-6.48291727 4.46014029 -4.24676932 0 0 0 Z " fill="#343434" transform="translate(50,125)"/>
<path d="M0 0 C0.66 0.33 1.32 0.66 2 1 C0.88121617 2.17262904 -0.24523051 3.33795138 -1.375 4.5 C-2.00148438 5.1496875 -2.62796875 5.799375 -3.2734375 6.46875 C-5 8 -5 8 -7 8 C-5.50902342 4.2047869 -3.24299151 2.38957269 0 0 Z " fill="#3D3D3D" transform="translate(62,30)"/>
<path d="M0 0 C0.33 0.99 0.66 1.98 1 3 C-1 5 -1 5 -4.625 5.125 C-5.73875 5.08375 -6.8525 5.0425 -8 5 C-7 3 -7 3 -4 1.9375 C-2.515 1.4734375 -2.515 1.4734375 -1 1 C-0.67 0.67 -0.34 0.34 0 0 Z " fill="#ECECEC" transform="translate(498,189)"/>
<path d="M0 0 C1.32 0.66 2.64 1.32 4 2 C4 2.66 4 3.32 4 4 C0.37 4 -3.26 4 -7 4 C-6.67 3.34 -6.34 2.68 -6 2 C-2.9375 1.375 -2.9375 1.375 0 1 C0 0.67 0 0.34 0 0 Z " fill="#AEAEAE" transform="translate(354,172)"/>
<path d="M0 0 C0.99 0.33 1.98 0.66 3 1 C1.88200014 2.33920838 0.75538103 3.67122556 -0.375 5 C-1.00148438 5.7425 -1.62796875 6.485 -2.2734375 7.25 C-3.12808594 8.11625 -3.12808594 8.11625 -4 9 C-4.66 9 -5.32 9 -6 9 C-4.47291037 5.56404834 -2.40072955 2.88087546 0 0 Z " fill="#2F2F2F" transform="translate(122,173)"/>
<path d="M0 0 C0.99 0.33 1.98 0.66 3 1 C2.21625 1.763125 1.4325 2.52625 0.625 3.3125 C-2.07257717 5.90891805 -2.07257717 5.90891805 -4 9 C-4.25 6.75 -4.25 6.75 -4 4 C-2 1.6875 -2 1.6875 0 0 Z " fill="#3C3C3C" transform="translate(116,126)"/>
<path d="M0 0 C0.33 0.66 0.66 1.32 1 2 C1.66 2 2.32 2 3 2 C2.67 3.65 2.34 5.3 2 7 C1.01 7 0.02 7 -1 7 C-0.67 4.69 -0.34 2.38 0 0 Z " fill="#D9D9D9" transform="translate(290,187)"/>
<path d="M0 0 C0.33 0 0.66 0 1 0 C1 1.65 1 3.3 1 5 C0.01 5.33 -0.98 5.66 -2 6 C-2.73323796 8.01508358 -2.73323796 8.01508358 -3 10 C-2.25 2.25 -2.25 2.25 0 0 Z " fill="#EEEEEE" transform="translate(421,180)"/>
<path d="M0 0 C1.98 0.495 1.98 0.495 4 1 C2.515 4.96 2.515 4.96 1 9 C-0.61949011 6.42786866 -1.04408751 5.32330841 -0.625 2.25 C-0.41875 1.5075 -0.2125 0.765 0 0 Z " fill="#DEDEDE" transform="translate(295,174)"/>
<path d="M0 0 C0.33 0 0.66 0 1 0 C1 2.31 1 4.62 1 7 C1.99 6.67 2.98 6.34 4 6 C4 6.66 4 7.32 4 8 C2.125 8.625 2.125 8.625 0 9 C-0.66 8.34 -1.32 7.68 -2 7 C-1.34 4.69 -0.68 2.38 0 0 Z " fill="#A4A4A4" transform="translate(398,176)"/>
</svg>
